# xmcd
#
# Track frame offsets:
#	187
#	14837
#	36635
#	53832
#	67715
#	86205
#	100415
#	115017
#	128897
#	143800
#
# Disc length: 2123 seconds
#
# Revision: 3
# Processed by: cddbd v1.5.2PL0 Copyright (c) Steve Scherf et al.
# Submitted via: audiograbber 1.83.01
#
DISCID=8e08490a
DTITLE=Various Artist - JV0062
DYEAR=1993
DGENRE=Karaoke
TTITLE0=Confederate Railroad - Queen Of Memphis
TTITLE1=Tritt, Travis - Lord Have Mercy On The Working Man
TTITLE2=Cyrus, Billy Ray - Could've Been Me
TTITLE3=Lawrence, Tracy - Alibis
TTITLE4=Yearwood, Trisha - Walkaway Joe
TTITLE5=Travis, Randy - Look Heart No Hands
TTITLE6=Raye, Collin - In This Life
TTITLE7=Chesnutt, Mark - Bubba Shot The Jukebox
TTITLE8=Brooks and Dunn - Boot Scootin' Boogie
TTITLE9=Tillis, Pam - Shake The Sugar Tree
EXTD=
EXTT0=
EXTT1=
EXTT2=
EXTT3=
EXTT4=
EXTT5=
EXTT6=
EXTT7=
EXTT8=
EXTT9=
PLAYORDER=
